# xmcd
#
# Track frame offsets: 
#        150
#        14002
#        41587
#        58740
#        74932
#        88687
#        104205
#        132922
#        147595
#        171715
#        183967
#        196557
#        207147
#        235647
#
# Disc length: 3322 seconds
#
# Revision: 10
# Processed by: cddbd v1.5.2PL0 Copyright (c) Steve Scherf et al.
# Submitted via: ExactAudioCopy v1.0b3
#
DISCID=da0cf80e
DTITLE=Muddy Waters Tribute Band - You're Gonna Miss Me (When I'm Dead
DTITLE=and Gone)
DYEAR=1996
DGENRE=Blues
TTITLE0=Trouble No More -Gregg Allman,voc. Jerry Portnoy,har
TTITLE1=Clouds In My Heart -Buddy Guy,voc&git
TTITLE2=I Don't Know Why -Junior Wells,voc&har, Bob Margolin,git
TTITLE3=You Can't Lose What You Never Had (You Can't Spend What You Ai
TTITLE3=n't Got) -Luther Guitar Jr. Johnson, Pinetop Perkins, Bob Marg
TTITLE3=olin
TTITLE4=Don't Go No Further -Bob Margolin,voc&git. Jerry Portnoy,har
TTITLE5=Going To Main Street -Levon Helm,voc. Bob Margolin,slide git. 
TTITLE5=Jerry Portnoy,har
TTITLE6=Going Down Slow -Pinetop Perkins,voc&Piano, Jerry Portnoy,har
TTITLE7=Blow Wind Blow -James Cotton,voc&har. Pinetop Perkins,Piano
TTITLE8=Honey Bee -Calvin 'Fuzz' Jones,voc&bass, Bob Margolin,slide gi
TTITLE8=t
TTITLE9=Sugar Sweet -Willie Smith,voc&dr. Jerry Portnoy,har
TTITLE10=Messin' With The Man -Bob Margolin,voc.bass&git.(li) Sonny La
TTITLE10=ndreth,sl.git.(re)
TTITLE11=Muddy's Shuffle -Jerry Portnoy,har
TTITLE12=Mean Mistreater -Koko Taylor,voc. Jerry Portnoy,har. Bob Marg
TTITLE12=olin,git
TTITLE13=Walking Through The Park  -Peter Wolf,voc. Billy Branch,har
EXTD=YEAR: 1996
EXTT0=
EXTT1=
EXTT2=
EXTT3=
EXTT4=
EXTT5=
EXTT6=
EXTT7=
EXTT8=
EXTT9=
EXTT10=
EXTT11=
EXTT12=
EXTT13=
PLAYORDER=
